<svg width="206" height="44" viewBox="0 0 206 44" fill="none" xmlns="http://www.w3.org/2000/svg">
<path d="M15.315 23.345C15.315 21.275 14.85 19.625 13.92 18.395C12.99 17.135 11.61 16.505 9.78 16.505C9.18 16.505 8.625 16.535 8.115 16.595C7.605 16.625 7.185 16.67 6.855 16.73V28.835C7.275 29.105 7.815 29.33 8.475 29.51C9.165 29.69 9.855 29.78 10.545 29.78C13.725 29.78 15.315 27.635 15.315 23.345ZM22.155 23.165C22.155 24.995 21.93 26.66 21.48 28.16C21.03 29.66 20.37 30.95 19.5 32.03C18.63 33.11 17.55 33.95 16.26 34.55C14.97 35.15 13.485 35.45 11.805 35.45C10.875 35.45 10.005 35.36 9.195 35.18C8.385 35 7.605 34.745 6.855 34.415V43.325H0.15V12.14C0.75 11.96 1.44 11.795 2.22 11.645C3 11.465 3.81 11.315 4.65 11.195C5.52 11.075 6.39 10.985 7.26 10.925C8.16 10.835 9.015 10.79 9.825 10.79C11.775 10.79 13.515 11.09 15.045 11.69C16.575 12.26 17.865 13.085 18.915 14.165C19.965 15.215 20.76 16.505 21.3 18.035C21.87 19.565 22.155 21.275 22.155 23.165ZM27.3082 35V1.16L34.0132 0.079999V11.42C34.4632 11.27 35.0332 11.135 35.7232 11.015C36.4432 10.865 37.1332 10.79 37.7932 10.79C39.7132 10.79 41.3032 11.06 42.5632 11.6C43.8532 12.11 44.8732 12.845 45.6232 13.805C46.4032 14.765 46.9432 15.905 47.2432 17.225C47.5732 18.545 47.7382 20.015 47.7382 21.635V35H41.0332V22.445C41.0332 20.285 40.7482 18.755 40.1782 17.855C39.6382 16.955 38.6182 16.505 37.1182 16.505C36.5182 16.505 35.9482 16.565 35.4082 16.685C34.8982 16.775 34.4332 16.88 34.0132 17V35H27.3082ZM62.8522 30.32C63.5122 30.32 64.1422 30.305 64.7422 30.275C65.3422 30.245 65.8222 30.2 66.1822 30.14V25.055C65.9122 24.995 65.5072 24.935 64.9672 24.875C64.4272 24.815 63.9322 24.785 63.4822 24.785C62.8522 24.785 62.2522 24.83 61.6822 24.92C61.1422 24.98 60.6622 25.115 60.2422 25.325C59.8222 25.535 59.4922 25.82 59.2522 26.18C59.0122 26.54 58.8922 26.99 58.8922 27.53C58.8922 28.58 59.2372 29.315 59.9272 29.735C60.6472 30.125 61.6222 30.32 62.8522 30.32ZM62.3122 10.7C64.2922 10.7 65.9422 10.925 67.2622 11.375C68.5822 11.825 69.6322 12.47 70.4122 13.31C71.2222 14.15 71.7922 15.17 72.1222 16.37C72.4522 17.57 72.6172 18.905 72.6172 20.375V34.325C71.6572 34.535 70.3222 34.775 68.6122 35.045C66.9022 35.345 64.8322 35.495 62.4022 35.495C60.8722 35.495 59.4772 35.36 58.2172 35.09C56.9872 34.82 55.9222 34.385 55.0222 33.785C54.1222 33.155 53.4322 32.345 52.9522 31.355C52.4722 30.365 52.2322 29.15 52.2322 27.71C52.2322 26.33 52.5022 25.16 53.0422 24.2C53.6122 23.24 54.3622 22.475 55.2922 21.905C56.2222 21.335 57.2872 20.93 58.4872 20.69C59.6872 20.42 60.9322 20.285 62.2222 20.285C63.0922 20.285 63.8572 20.33 64.5172 20.42C65.2072 20.48 65.7622 20.57 66.1822 20.69V20.06C66.1822 18.92 65.8372 18.005 65.1472 17.315C64.4572 16.625 63.2572 16.28 61.5472 16.28C60.4072 16.28 59.2822 16.37 58.1722 16.55C57.0622 16.7 56.1022 16.925 55.2922 17.225L54.4372 11.825C54.8272 11.705 55.3072 11.585 55.8772 11.465C56.4772 11.315 57.1222 11.195 57.8122 11.105C58.5022 10.985 59.2222 10.895 59.9722 10.835C60.7522 10.745 61.5322 10.7 62.3122 10.7ZM92.9453 17.27C92.3453 17.12 91.6403 16.97 90.8303 16.82C90.0203 16.64 89.1503 16.55 88.2203 16.55C87.8003 16.55 87.2903 16.595 86.6903 16.685C86.1203 16.745 85.6853 16.82 85.3853 16.91V35H78.6803V12.59C79.8803 12.17 81.2903 11.78 82.9103 11.42C84.5603 11.03 86.3903 10.835 88.4003 10.835C88.7603 10.835 89.1953 10.865 89.7053 10.925C90.2153 10.955 90.7253 11.015 91.2353 11.105C91.7453 11.165 92.2553 11.255 92.7653 11.375C93.2753 11.465 93.7103 11.585 94.0703 11.735L92.9453 17.27ZM110.67 22.445C110.67 20.285 110.385 18.755 109.815 17.855C109.275 16.955 108.33 16.505 106.98 16.505C106.56 16.505 106.125 16.535 105.675 16.595C105.225 16.625 104.79 16.67 104.37 16.73V35H97.6646V12.14C98.2346 11.99 98.8946 11.84 99.6446 11.69C100.425 11.51 101.235 11.36 102.075 11.24C102.945 11.09 103.83 10.985 104.73 10.925C105.63 10.835 106.515 10.79 107.385 10.79C109.095 10.79 110.475 11.015 111.525 11.465C112.605 11.885 113.49 12.395 114.18 12.995C115.14 12.305 116.235 11.765 117.465 11.375C118.725 10.985 119.88 10.79 120.93 10.79C122.82 10.79 124.365 11.06 125.565 11.6C126.795 12.11 127.77 12.845 128.49 13.805C129.21 14.765 129.705 15.905 129.975 17.225C130.245 18.545 130.38 20.015 130.38 21.635V35H123.675V22.445C123.675 20.285 123.39 18.755 122.82 17.855C122.28 16.955 121.335 16.505 119.985 16.505C119.625 16.505 119.115 16.595 118.455 16.775C117.825 16.955 117.3 17.18 116.88 17.45C117.09 18.14 117.225 18.875 117.285 19.655C117.345 20.405 117.375 21.215 117.375 22.085V35H110.67V22.445ZM145.513 30.32C146.173 30.32 146.803 30.305 147.403 30.275C148.003 30.245 148.483 30.2 148.843 30.14V25.055C148.573 24.995 148.168 24.935 147.628 24.875C147.088 24.815 146.593 24.785 146.143 24.785C145.513 24.785 144.913 24.83 144.343 24.92C143.803 24.98 143.323 25.115 142.903 25.325C142.483 25.535 142.153 25.82 141.913 26.18C141.673 26.54 141.553 26.99 141.553 27.53C141.553 28.58 141.898 29.315 142.588 29.735C143.308 30.125 144.283 30.32 145.513 30.32ZM144.973 10.7C146.953 10.7 148.603 10.925 149.923 11.375C151.243 11.825 152.293 12.47 153.073 13.31C153.883 14.15 154.453 15.17 154.783 16.37C155.113 17.57 155.278 18.905 155.278 20.375V34.325C154.318 34.535 152.983 34.775 151.273 35.045C149.563 35.345 147.493 35.495 145.063 35.495C143.533 35.495 142.138 35.36 140.878 35.09C139.648 34.82 138.583 34.385 137.683 33.785C136.783 33.155 136.093 32.345 135.613 31.355C135.133 30.365 134.893 29.15 134.893 27.71C134.893 26.33 135.163 25.16 135.703 24.2C136.273 23.24 137.023 22.475 137.953 21.905C138.883 21.335 139.948 20.93 141.148 20.69C142.348 20.42 143.593 20.285 144.883 20.285C145.753 20.285 146.518 20.33 147.178 20.42C147.868 20.48 148.423 20.57 148.843 20.69V20.06C148.843 18.92 148.498 18.005 147.808 17.315C147.118 16.625 145.918 16.28 144.208 16.28C143.068 16.28 141.943 16.37 140.833 16.55C139.723 16.7 138.763 16.925 137.953 17.225L137.098 11.825C137.488 11.705 137.968 11.585 138.538 11.465C139.138 11.315 139.783 11.195 140.473 11.105C141.163 10.985 141.883 10.895 142.633 10.835C143.413 10.745 144.193 10.7 144.973 10.7ZM160.216 23.165C160.216 21.455 160.486 19.85 161.026 18.35C161.596 16.82 162.406 15.5 163.456 14.39C164.506 13.25 165.781 12.35 167.281 11.69C168.781 11.03 170.491 10.7 172.411 10.7C173.671 10.7 174.826 10.82 175.876 11.06C176.926 11.27 177.946 11.585 178.936 12.005L177.541 17.36C176.911 17.12 176.221 16.91 175.471 16.73C174.721 16.55 173.881 16.46 172.951 16.46C170.971 16.46 169.486 17.075 168.496 18.305C167.536 19.535 167.056 21.155 167.056 23.165C167.056 25.295 167.506 26.945 168.406 28.115C169.336 29.285 170.941 29.87 173.221 29.87C174.031 29.87 174.901 29.795 175.831 29.645C176.761 29.495 177.616 29.255 178.396 28.925L179.341 34.415C178.561 34.745 177.586 35.03 176.416 35.27C175.246 35.51 173.956 35.63 172.546 35.63C170.386 35.63 168.526 35.315 166.966 34.685C165.406 34.025 164.116 33.14 163.096 32.03C162.106 30.92 161.371 29.615 160.891 28.115C160.441 26.585 160.216 24.935 160.216 23.165ZM205.208 11.33C203.858 15.89 202.448 20.165 200.978 24.155C199.508 28.145 197.903 32.015 196.163 35.765C195.533 37.115 194.903 38.255 194.273 39.185C193.643 40.145 192.953 40.925 192.203 41.525C191.453 42.155 190.598 42.605 189.638 42.875C188.708 43.175 187.613 43.325 186.353 43.325C185.303 43.325 184.328 43.22 183.428 43.01C182.558 42.83 181.838 42.62 181.268 42.38L182.438 37.025C183.128 37.265 183.743 37.43 184.283 37.52C184.823 37.61 185.393 37.655 185.993 37.655C187.193 37.655 188.108 37.325 188.738 36.665C189.398 36.035 189.953 35.15 190.403 34.01C188.873 31.01 187.343 27.65 185.813 23.93C184.283 20.18 182.843 15.98 181.493 11.33H188.603C188.903 12.5 189.248 13.775 189.638 15.155C190.058 16.505 190.493 17.885 190.943 19.295C191.393 20.675 191.843 22.025 192.293 23.345C192.773 24.665 193.223 25.865 193.643 26.945C194.033 25.865 194.438 24.665 194.858 23.345C195.278 22.025 195.683 20.675 196.073 19.295C196.493 17.885 196.883 16.505 197.243 15.155C197.633 13.775 197.978 12.5 198.278 11.33H205.208Z" fill="url(#paint0_linear_75_3)"/>
<defs>
<linearGradient id="paint0_linear_75_3" x1="60.1244" y1="13.8947" x2="209.182" y2="13.2779" gradientUnits="userSpaceOnUse">
<stop stop-color="#FFB800"/>
<stop offset="1" stop-color="#00D1FF"/>
</linearGradient>
</defs>
</svg>
