<svg width="247" height="44" viewBox="0 0 247 44" fill="none" xmlns="http://www.w3.org/2000/svg">
<path d="M6.865 22.4C6.865 26.15 8.38 28.025 11.41 28.025C12.1 28.025 12.745 27.935 13.345 27.755C13.945 27.575 14.455 27.365 14.875 27.125V16.415C14.545 16.355 14.155 16.31 13.705 16.28C13.255 16.22 12.73 16.19 12.13 16.19C10.36 16.19 9.04 16.775 8.17 17.945C7.3 19.115 6.865 20.6 6.865 22.4ZM21.58 32.03C21.58 35.9 20.59 38.765 18.61 40.625C16.66 42.515 13.63 43.46 9.52 43.46C8.08 43.46 6.64 43.325 5.2 43.055C3.76 42.815 2.425 42.485 1.195 42.065L2.365 36.44C3.415 36.86 4.51 37.19 5.65 37.43C6.82 37.67 8.14 37.79 9.61 37.79C11.53 37.79 12.88 37.37 13.66 36.53C14.47 35.69 14.875 34.61 14.875 33.29V32.435C14.155 32.765 13.405 33.02 12.625 33.2C11.875 33.35 11.05 33.425 10.15 33.425C6.88 33.425 4.375 32.465 2.635 30.545C0.895 28.595 0.0250001 25.88 0.0250001 22.4C0.0250001 20.66 0.295 19.085 0.835 17.675C1.375 16.235 2.155 15.005 3.175 13.985C4.225 12.965 5.5 12.185 7 11.645C8.5 11.075 10.195 10.79 12.085 10.79C12.895 10.79 13.72 10.835 14.56 10.925C15.43 10.985 16.285 11.075 17.125 11.195C17.965 11.315 18.76 11.465 19.51 11.645C20.29 11.795 20.98 11.96 21.58 12.14V32.03ZM26.7438 23.345C26.7438 21.245 27.0588 19.415 27.6887 17.855C28.3488 16.265 29.2038 14.945 30.2538 13.895C31.3038 12.845 32.5038 12.05 33.8538 11.51C35.2338 10.97 36.6438 10.7 38.0838 10.7C41.4438 10.7 44.0988 11.735 46.0488 13.805C47.9988 15.845 48.9738 18.86 48.9738 22.85C48.9738 23.24 48.9588 23.675 48.9288 24.155C48.8988 24.605 48.8688 25.01 48.8388 25.37H33.6288C33.7788 26.75 34.4238 27.845 35.5638 28.655C36.7038 29.465 38.2338 29.87 40.1538 29.87C41.3838 29.87 42.5838 29.765 43.7538 29.555C44.9538 29.315 45.9288 29.03 46.6788 28.7L47.5788 34.145C47.2188 34.325 46.7388 34.505 46.1388 34.685C45.5388 34.865 44.8638 35.015 44.1138 35.135C43.3938 35.285 42.6138 35.405 41.7738 35.495C40.9338 35.585 40.0938 35.63 39.2538 35.63C37.1238 35.63 35.2638 35.315 33.6738 34.685C32.1138 34.055 30.8088 33.2 29.7588 32.12C28.7388 31.01 27.9738 29.705 27.4638 28.205C26.9838 26.705 26.7438 25.085 26.7438 23.345ZM42.4938 20.78C42.4638 20.21 42.3588 19.655 42.1788 19.115C42.0288 18.575 41.7738 18.095 41.4138 17.675C41.0838 17.255 40.6488 16.91 40.1088 16.64C39.5988 16.37 38.9538 16.235 38.1738 16.235C37.4238 16.235 36.7788 16.37 36.2388 16.64C35.6988 16.88 35.2488 17.21 34.8888 17.63C34.5288 18.05 34.2438 18.545 34.0338 19.115C33.8538 19.655 33.7188 20.21 33.6288 20.78H42.4938ZM54.148 12.14C55.288 11.81 56.758 11.51 58.558 11.24C60.358 10.94 62.248 10.79 64.228 10.79C66.238 10.79 67.903 11.06 69.223 11.6C70.573 12.11 71.638 12.845 72.418 13.805C73.198 14.765 73.753 15.905 74.083 17.225C74.413 18.545 74.578 20.015 74.578 21.635V35H67.873V22.445C67.873 20.285 67.588 18.755 67.018 17.855C66.448 16.955 65.383 16.505 63.823 16.505C63.343 16.505 62.833 16.535 62.293 16.595C61.753 16.625 61.273 16.67 60.853 16.73V35H54.148V12.14ZM79.5221 23.345C79.5221 21.245 79.8371 19.415 80.4671 17.855C81.1271 16.265 81.9821 14.945 83.0321 13.895C84.0821 12.845 85.2821 12.05 86.6321 11.51C88.0121 10.97 89.4221 10.7 90.8621 10.7C94.2221 10.7 96.8771 11.735 98.8271 13.805C100.777 15.845 101.752 18.86 101.752 22.85C101.752 23.24 101.737 23.675 101.707 24.155C101.677 24.605 101.647 25.01 101.617 25.37H86.4071C86.5571 26.75 87.2021 27.845 88.3421 28.655C89.4821 29.465 91.0121 29.87 92.9321 29.87C94.1621 29.87 95.3621 29.765 96.5321 29.555C97.7321 29.315 98.7071 29.03 99.4571 28.7L100.357 34.145C99.9971 34.325 99.5171 34.505 98.9171 34.685C98.3171 34.865 97.6421 35.015 96.8921 35.135C96.1721 35.285 95.3921 35.405 94.5521 35.495C93.7121 35.585 92.8721 35.63 92.0321 35.63C89.9021 35.63 88.0421 35.315 86.4521 34.685C84.8921 34.055 83.5871 33.2 82.5371 32.12C81.5171 31.01 80.7521 29.705 80.2421 28.205C79.7621 26.705 79.5221 25.085 79.5221 23.345ZM95.2721 20.78C95.2421 20.21 95.1371 19.655 94.9571 19.115C94.8071 18.575 94.5521 18.095 94.1921 17.675C93.8621 17.255 93.4271 16.91 92.8871 16.64C92.3771 16.37 91.7321 16.235 90.9521 16.235C90.2021 16.235 89.5571 16.37 89.0171 16.64C88.4771 16.88 88.0271 17.21 87.6671 17.63C87.3071 18.05 87.0221 18.545 86.8121 19.115C86.6321 19.655 86.4971 20.21 86.4071 20.78H95.2721ZM121.191 17.27C120.591 17.12 119.886 16.97 119.076 16.82C118.266 16.64 117.396 16.55 116.466 16.55C116.046 16.55 115.536 16.595 114.936 16.685C114.366 16.745 113.931 16.82 113.631 16.91V35H106.926V12.59C108.126 12.17 109.536 11.78 111.156 11.42C112.806 11.03 114.636 10.835 116.646 10.835C117.006 10.835 117.441 10.865 117.951 10.925C118.461 10.955 118.971 11.015 119.481 11.105C119.991 11.165 120.501 11.255 121.011 11.375C121.521 11.465 121.956 11.585 122.316 11.735L121.191 17.27ZM132.616 35H125.911V11.33H132.616V35ZM133.246 4.49C133.246 5.72 132.841 6.695 132.031 7.415C131.251 8.105 130.321 8.45 129.241 8.45C128.161 8.45 127.216 8.105 126.406 7.415C125.626 6.695 125.236 5.72 125.236 4.49C125.236 3.26 125.626 2.3 126.406 1.61C127.216 0.889998 128.161 0.529999 129.241 0.529999C130.321 0.529999 131.251 0.889998 132.031 1.61C132.841 2.3 133.246 3.26 133.246 4.49ZM137.794 23.165C137.794 21.455 138.064 19.85 138.604 18.35C139.174 16.82 139.984 15.5 141.034 14.39C142.084 13.25 143.359 12.35 144.859 11.69C146.359 11.03 148.069 10.7 149.989 10.7C151.249 10.7 152.404 10.82 153.454 11.06C154.504 11.27 155.524 11.585 156.514 12.005L155.119 17.36C154.489 17.12 153.799 16.91 153.049 16.73C152.299 16.55 151.459 16.46 150.529 16.46C148.549 16.46 147.064 17.075 146.074 18.305C145.114 19.535 144.634 21.155 144.634 23.165C144.634 25.295 145.084 26.945 145.984 28.115C146.914 29.285 148.519 29.87 150.799 29.87C151.609 29.87 152.479 29.795 153.409 29.645C154.339 29.495 155.194 29.255 155.974 28.925L156.919 34.415C156.139 34.745 155.164 35.03 153.994 35.27C152.824 35.51 151.534 35.63 150.124 35.63C147.964 35.63 146.104 35.315 144.544 34.685C142.984 34.025 141.694 33.14 140.674 32.03C139.684 30.92 138.949 29.615 138.469 28.115C138.019 26.585 137.794 24.935 137.794 23.165ZM176.584 23.345C176.584 21.275 176.119 19.625 175.189 18.395C174.259 17.135 172.879 16.505 171.049 16.505C170.449 16.505 169.894 16.535 169.384 16.595C168.874 16.625 168.454 16.67 168.124 16.73V28.835C168.544 29.105 169.084 29.33 169.744 29.51C170.434 29.69 171.124 29.78 171.814 29.78C174.994 29.78 176.584 27.635 176.584 23.345ZM183.424 23.165C183.424 24.995 183.199 26.66 182.749 28.16C182.299 29.66 181.639 30.95 180.769 32.03C179.899 33.11 178.819 33.95 177.529 34.55C176.239 35.15 174.754 35.45 173.074 35.45C172.144 35.45 171.274 35.36 170.464 35.18C169.654 35 168.874 34.745 168.124 34.415V43.325H161.419V12.14C162.019 11.96 162.709 11.795 163.489 11.645C164.269 11.465 165.079 11.315 165.919 11.195C166.789 11.075 167.659 10.985 168.529 10.925C169.429 10.835 170.284 10.79 171.094 10.79C173.044 10.79 174.784 11.09 176.314 11.69C177.844 12.26 179.134 13.085 180.184 14.165C181.234 15.215 182.029 16.505 182.569 18.035C183.139 19.565 183.424 21.275 183.424 23.165ZM198.027 35.45C196.077 35.42 194.487 35.21 193.257 34.82C192.057 34.43 191.097 33.89 190.377 33.2C189.687 32.48 189.207 31.625 188.937 30.635C188.697 29.615 188.577 28.475 188.577 27.215V1.16L195.282 0.079999V25.865C195.282 26.465 195.327 27.005 195.417 27.485C195.507 27.965 195.672 28.37 195.912 28.7C196.182 29.03 196.557 29.3 197.037 29.51C197.517 29.72 198.162 29.855 198.972 29.915L198.027 35.45ZM223.02 34.19C221.88 34.52 220.41 34.82 218.61 35.09C216.81 35.39 214.92 35.54 212.94 35.54C210.93 35.54 209.25 35.27 207.9 34.73C206.58 34.19 205.53 33.44 204.75 32.48C203.97 31.49 203.415 30.32 203.085 28.97C202.755 27.62 202.59 26.135 202.59 24.515V11.33H209.295V23.705C209.295 25.865 209.58 27.425 210.15 28.385C210.72 29.345 211.785 29.825 213.345 29.825C213.825 29.825 214.335 29.81 214.875 29.78C215.415 29.72 215.895 29.66 216.315 29.6V11.33H223.02V34.19ZM236.109 30.185C237.339 30.185 238.209 30.065 238.719 29.825C239.229 29.585 239.484 29.12 239.484 28.43C239.484 27.89 239.154 27.425 238.494 27.035C237.834 26.615 236.829 26.15 235.479 25.64C234.429 25.25 233.469 24.845 232.599 24.425C231.759 24.005 231.039 23.51 230.439 22.94C229.839 22.34 229.374 21.635 229.044 20.825C228.714 20.015 228.549 19.04 228.549 17.9C228.549 15.68 229.374 13.925 231.024 12.635C232.674 11.345 234.939 10.7 237.819 10.7C239.259 10.7 240.639 10.835 241.959 11.105C243.279 11.345 244.329 11.615 245.109 11.915L243.939 17.135C243.159 16.865 242.304 16.625 241.374 16.415C240.474 16.205 239.454 16.1 238.314 16.1C236.214 16.1 235.164 16.685 235.164 17.855C235.164 18.125 235.209 18.365 235.299 18.575C235.389 18.785 235.569 18.995 235.839 19.205C236.109 19.385 236.469 19.595 236.919 19.835C237.399 20.045 237.999 20.285 238.719 20.555C240.189 21.095 241.404 21.635 242.364 22.175C243.324 22.685 244.074 23.255 244.614 23.885C245.184 24.485 245.574 25.16 245.784 25.91C246.024 26.66 246.144 27.53 246.144 28.52C246.144 30.86 245.259 32.63 243.489 33.83C241.749 35.03 239.274 35.63 236.064 35.63C233.964 35.63 232.209 35.45 230.799 35.09C229.419 34.73 228.459 34.43 227.919 34.19L229.044 28.745C230.184 29.195 231.354 29.555 232.554 29.825C233.754 30.065 234.939 30.185 236.109 30.185Z" fill="url(#paint0_linear_75_3)"/>
<defs>
<linearGradient id="paint0_linear_75_3" x1="73.8097" y1="13.8947" x2="252.82" y2="13.005" gradientUnits="userSpaceOnUse">
<stop stop-color="#5EFF50"/>
<stop offset="0.363551" stop-color="#29FFF2"/>
<stop offset="1" stop-color="#0047FF"/>
</linearGradient>
</defs>
</svg>
